<svg width="20" height="20" viewBox="0 0 32 32" fill="none" xmlns="http://www.w3.org/2000/svg">
    <path d="M28.5833 8.35821V30.1493C28.5833 31.1642 27.4167 32 26 32H5.95833C4.54167 32 3.375 31.1642 3.375 30.1493V8.35821H28.5833ZM22.0417 10.7761V29.5224H23.5417V10.7761H22.0417ZM15.25 10.7761V29.5224H16.75V10.7761H15.25ZM8.45833 10.7761V29.5224H9.95833V10.7761H8.45833ZM10.125 3.31343V1.76119C10.125 0.77612 11.2083 0 12.5833 0H19.4167C20.7917 0 21.875 0.77612 21.875 1.76119V3.31343H29.4167C30.8333 3.31343 32 4.14925 32 5.16418V6.44776H0V5.13433C0 4.1194 1.16667 3.28358 2.58333 3.28358H10.125V3.31343ZM12.5833 1.19403C12.1667 1.19403 11.8333 1.43284 11.8333 1.73134V3.28358H20.2083V1.73134C20.2083 1.43284 19.875 1.19403 19.4583 1.19403H12.5833Z" fill="#1C1C1C"/>
</svg>
