<svg width="20" height="20" viewBox="0 0 32 32" fill="none" xmlns="http://www.w3.org/2000/svg">
    <path d="M30.8299 9.65724L29.4156 11.0722L20.9291 2.58693L22.3434 1.17186C23.9057 -0.390619 26.4391 -0.390619 28.0015 1.17186L30.8299 4.00089C32.39 5.56251 32.39 8.0949 30.8299 9.65724ZM11.029 26.6267C10.6384 27.0173 10.6384 27.6498 11.029 28.0404C11.4197 28.4331 12.0526 28.4331 12.4431 28.0404L28.0015 12.4863L26.5857 11.0712L11.029 26.6267ZM3.95698 19.5564C3.56622 19.9473 3.56622 20.5795 3.95698 20.9703C4.34753 21.361 4.98038 21.361 5.37113 20.9703L20.9291 5.41504L19.5154 4.00089L3.95698 19.5564ZM22.3415 6.82814L6.78496 22.3844C6.00379 23.164 6.00577 24.4315 6.78496 25.2127C7.56646 25.9939 8.8319 25.9975 9.61512 25.2106L25.1717 9.65724L22.3415 6.82814ZM9.6111 29.4509C9.13277 28.972 8.90221 28.3651 8.81641 27.7397C8.61308 27.7711 8.40831 27.8003 8.19912 27.8003C7.1306 27.8003 6.12705 27.3826 5.37113 26.6267C4.61522 25.8689 4.19921 24.8667 4.19921 23.7983C4.19921 23.6035 4.22842 23.4136 4.25586 23.2244C3.60936 23.1363 3.01179 22.8531 2.54302 22.3844C2.49804 22.3397 2.48254 22.2791 2.44159 22.2302L0 31.9995L9.74392 29.5603C9.70099 29.5212 9.65238 29.4919 9.6111 29.4509Z" fill="#1C1C1C"/>
</svg>
