<svg
        width="20"
        height="20"
        viewBox="0 0 31 32"
        fill="none"
        xmlns="http://www.w3.org/2000/svg"
>
    <g id="Search">
        <path
                id="Vector"
                d="M12.4054 0C5.5547 0 0 5.5489 0 12.3924C0 19.2359 5.5547 24.7848 12.4054 24.7848C15.0398 24.7848 17.4829 23.9639 19.4911 22.5657L28.8725 31.9358C28.9572 32.0204 29.0943 32.0204 29.1746 31.9416L30.9421 30.1761C31.0238 30.0945 31.0165 29.9545 30.9362 29.8743L21.6773 20.6252C23.6272 18.4369 24.8108 15.5531 24.8108 12.3923C24.8109 5.5489 19.2562 0 12.4054 0ZM12.4054 23.3268C6.36035 23.3268 1.45945 18.4311 1.45945 12.3924C1.45945 6.35365 6.3603 1.45796 12.4054 1.45796C18.4506 1.45796 23.3514 6.35365 23.3514 12.3924C23.3514 18.4311 18.4505 23.3268 12.4054 23.3268Z"
                fill="#7D7D7D"
        />
    </g>
</svg>